<?xml version="1.0" encoding="UTF-8"?>
<svg version="1.1" xmlns="http://www.w3.org/2000/svg" width="1280" height="1280">
<path d="M0 0 C422.4 0 844.8 0 1280 0 C1280 422.4 1280 844.8 1280 1280 C857.6 1280 435.2 1280 0 1280 C0 857.6 0 435.2 0 0 Z " fill="#FEFEFE" transform="translate(0,0)"/>
<path d="M0 0 C0.66996034 -0.00205263 1.33992067 -0.00410527 2.03018284 -0.0062201 C4.29123412 -0.01190678 6.55222481 -0.0104308 8.81328201 -0.00901413 C10.44430399 -0.01159681 12.07532533 -0.0146097 13.7063458 -0.01801753 C18.20107985 -0.0261022 22.69579794 -0.02787792 27.19053841 -0.028615 C32.03320496 -0.03046301 36.87586318 -0.03800907 41.71852493 -0.04475021 C52.31351959 -0.05834452 62.90851046 -0.06435997 73.50351238 -0.06876087 C80.11636498 -0.07152146 86.72921611 -0.07575848 93.34206772 -0.08026505 C111.64324604 -0.09245919 129.94442318 -0.10275819 148.24560547 -0.10614014 C150.00331711 -0.10646949 150.00331711 -0.10646949 151.79653807 -0.10680549 C152.97118496 -0.10702377 154.14583185 -0.10724204 155.35607409 -0.10746694 C157.73644304 -0.10791041 160.11681199 -0.10835697 162.49718094 -0.10880661 C163.67793171 -0.10902804 164.85868248 -0.10924947 166.07521358 -0.10947761 C185.2112298 -0.11342633 204.34720795 -0.13088195 223.48320946 -0.15416613 C243.11956524 -0.1778667 262.75590191 -0.1903414 282.39227223 -0.19150805 C293.42151286 -0.19242555 304.45070389 -0.19819656 315.47993088 -0.21632767 C324.87103823 -0.23171119 334.26208066 -0.23685947 343.65319821 -0.22858956 C348.44591581 -0.22467685 353.23850263 -0.22564294 358.03120422 -0.23964691 C362.4182634 -0.25234855 366.80509301 -0.25122128 371.1921517 -0.2390562 C372.77966142 -0.2370927 374.3671872 -0.24020765 375.95467433 -0.24890056 C378.11289396 -0.25997096 380.27030022 -0.25252083 382.42849731 -0.24050903 C383.62716706 -0.24110612 384.82583681 -0.24170321 386.06082988 -0.24231839 C391.68326182 0.37480348 396.36956222 2.5991175 400.71593094 6.25642776 C401.68272781 7.03373245 401.68272781 7.03373245 402.66905594 7.82674026 C407.63558848 14.19685809 407.89845897 21.93322406 407.82669449 29.70468521 C407.82926254 30.7307991 407.8318306 31.75691299 407.83447647 32.81412125 C407.83941961 36.24370104 407.82290852 39.67283578 407.80650711 43.10237503 C407.80558763 45.60654785 407.80598939 48.11072145 407.80760288 50.61489391 C407.80821064 56.63234155 407.79538747 62.64961855 407.7760989 68.66702351 C407.75444312 75.63234249 407.75211161 82.59759448 407.74974442 89.56294632 C407.73401297 107.93996144 407.69212941 126.31694665 407.65343094 144.69392776 C407.59155594 185.75830276 407.52968094 226.82267776 407.46593094 269.13142776 C265.23593094 269.13142776 123.00593094 269.13142776 -23.53406906 269.13142776 C-23.57531906 228.35580276 -23.61656906 187.58017776 -23.65906906 145.56892776 C-23.67727707 132.68531204 -23.69548508 119.80169632 -23.71424484 106.527668 C-23.72327805 90.81709671 -23.72327805 90.81709671 -23.72495651 83.46652603 C-23.72682273 78.3234856 -23.73416399 73.18047658 -23.74522018 68.03744888 C-23.75929619 61.47999784 -23.76305427 54.92259494 -23.76021361 48.36512578 C-23.76080775 45.95679232 -23.76478295 43.54845681 -23.77249932 41.14013565 C-23.78243204 37.88943049 -23.78005441 34.63895885 -23.77457809 31.38824844 C-23.78040342 30.44395509 -23.78622875 29.49966173 -23.79223061 28.52675343 C-23.75670018 20.69125015 -22.52960841 13.49600705 -17.53406906 7.13142776 C-11.85788071 2.02859177 -7.70397825 0.00801572 0 0 Z " fill="#FEFEFE" transform="translate(426.5340690612793,762.8685722351074)"/>
<path d="M0 0 C4.12514706 3.33522529 7.67988651 6.71265812 11.125 10.75 C29.54985862 31.50908902 59.66180267 45.79292944 87 49 C91.77509262 49.26221117 96.5311738 49.28590719 101.3125 49.25 C102.58834961 49.24468262 103.86419922 49.23936523 105.17871094 49.23388672 C113.9448417 49.14548688 122.37943095 48.68637671 131 47 C131.76699219 46.86722656 132.53398438 46.73445312 133.32421875 46.59765625 C135.58401654 46.15906333 137.77753114 45.60066726 140 45 C141.10988281 44.71898437 142.21976563 44.43796875 143.36328125 44.1484375 C160.01366925 39.63435139 175.85873676 31.15502651 189 20 C189.85464844 19.28328125 190.70929688 18.5665625 191.58984375 17.828125 C197.91283127 12.33326374 203.4795504 6.28391603 209 0 C212.40076319 1.3092069 215.62578433 2.77532787 218.8515625 4.46875 C219.77485352 4.9519873 220.69814453 5.43522461 221.64941406 5.93310547 C222.63135742 6.45018066 223.61330078 6.96725586 224.625 7.5 C225.65334961 8.03898926 226.68169922 8.57797852 227.74121094 9.13330078 C234.6706451 12.76734211 241.59157516 16.41758789 248.51220703 20.06835938 C255.49142776 23.74453722 262.4951303 27.37298988 269.5 31 C290.35888276 41.80639171 290.35888276 41.80639171 299.57666016 46.7109375 C301.30427278 47.62991742 303.03326614 48.54630364 304.76318359 49.4609375 C324.49146084 59.91370769 342.60217279 70.8833503 355 90 C355.59433838 90.89851685 355.59433838 90.89851685 356.20068359 91.81518555 C359.24259969 96.51533236 361.62605805 101.26340686 363.75 106.4375 C364.25587646 107.65360962 364.25587646 107.65360962 364.77197266 108.89428711 C367.92159165 116.58476341 370.7204416 124.39457755 373.49633789 132.22607422 C377.42817101 143.29850685 381.67443599 154.24330776 385.91894531 165.19873047 C388.04659919 170.71198714 390.10963429 176.24880692 392.17236328 181.78662109 C393.16033521 184.42879027 394.15624683 187.06791459 395.15234375 189.70703125 C398.82848357 199.45706188 402.47215973 209.21101677 405.90234375 219.05053711 C407.76852085 224.39052514 409.74263762 229.68476272 411.74853516 234.97363281 C413.59871039 239.87279048 415.34316432 244.80360352 417.0625 249.75 C418.74008733 254.56657806 420.49360558 259.30772935 422.5 264 C424.56343328 268.84138878 426.41662942 273.73338157 428.1875 278.6875 C428.43757812 279.37650391 428.68765625 280.06550781 428.9453125 280.77539062 C435.27338368 298.71632756 435.47694165 318.41534094 428 336 C427.55398438 337.07378906 427.10796875 338.14757812 426.6484375 339.25390625 C420.10949227 353.55556579 408.52885237 364.81079205 396 374 C394.73929688 374.93392578 394.73929688 374.93392578 393.453125 375.88671875 C374.42189189 389.64110995 364.78808253 384 335 384 C335 351.33 335 318.66 335 285 C340.94 281.7 346.88 278.4 353 275 C364.61501158 268.3839023 364.61501158 268.3839023 375 260 C375.36255935 255.89170101 375.36255935 255.89170101 373.9375 252.125 C370.96235767 250.397498 368.29786067 250.38672835 365 251 C361.49094657 252.58900533 358.30314029 254.61378194 355.0625 256.6875 C354.20720703 257.21794922 353.35191406 257.74839844 352.47070312 258.29492188 C349.18240077 260.3391373 345.91299321 262.41083079 342.65966797 264.51025391 C341.94568848 264.96706543 341.23170898 265.42387695 340.49609375 265.89453125 C339.55334595 266.50518433 339.55334595 266.50518433 338.59155273 267.12817383 C337 268 337 268 335 268 C334.99853344 267.28769541 334.99706688 266.57539082 334.99555588 265.84150124 C334.95844434 248.47985063 334.89937219 231.11841239 334.81609726 213.75692177 C334.77635062 205.36089396 334.74393597 196.96495929 334.72900391 188.56884766 C334.71596463 181.24762434 334.68894218 173.92660634 334.64538693 166.60549867 C334.622823 162.73184864 334.60708625 158.85845134 334.60811615 154.98472977 C334.60886579 151.33201214 334.59079471 147.67985212 334.55883217 144.0272789 C334.54636963 142.06115334 334.55337348 140.09493389 334.56114197 138.12878418 C334.44342126 128.04519385 332.21349087 118.4698078 325 111 C314.49460049 102.46687856 304.79032547 101.56028265 291.71643066 101.61904907 C290.04468051 101.61559043 288.37293264 101.61082449 286.70118952 101.60486734 C282.11700954 101.59235602 277.53301718 101.59852835 272.94883657 101.60782599 C268.00125314 101.61461558 263.0537019 101.6041357 258.10612488 101.59588623 C248.41763183 101.58254576 238.7292085 101.58542805 229.04071271 101.59412415 C221.16672848 101.60089904 213.29276378 101.60181826 205.41877747 101.5985527 C203.73783607 101.59786316 203.73783607 101.59786316 202.02293625 101.59715968 C199.74640937 101.5962005 197.46988249 101.59522786 195.19335562 101.5942419 C173.84590134 101.58568709 152.4984857 101.59552359 131.15103775 101.611643 C112.83358264 101.62504626 94.51618456 101.62271819 76.19873047 101.60888672 C54.92770813 101.59283254 33.65671967 101.58651107 12.38569212 101.59572351 C10.1175356 101.59667916 7.84937907 101.59762227 5.58122253 101.5985527 C4.46524347 101.59901553 3.34926441 101.59947836 2.19946781 101.59995521 C-5.66514069 101.60254558 -13.52972771 101.59817308 -21.39433289 101.59111404 C-30.97853598 101.58270066 -40.56266536 101.58497583 -50.14686 101.60095628 C-55.03694139 101.60884112 -59.92689988 101.61192689 -64.81698036 101.60200882 C-69.29395568 101.59306593 -73.77069421 101.59798815 -78.24764806 101.61394148 C-79.86664989 101.61729098 -81.48567175 101.61559138 -83.10466069 101.60831411 C-95.09836227 101.55854103 -103.86456746 102.660601 -113 111 C-121.95022568 120.40392375 -123.59635952 131.36906167 -123.54589844 143.91674805 C-123.55465385 145.27797108 -123.56514641 146.63918386 -123.57722473 148.00038147 C-123.60486522 151.66085377 -123.60849434 155.32098663 -123.60750484 158.98154807 C-123.61065304 162.81995305 -123.63631051 166.65820936 -123.65948486 170.49653625 C-123.69990342 177.74935816 -123.72035211 185.00209047 -123.73345876 192.25500757 C-123.74937699 200.51878875 -123.78781267 208.78241851 -123.82805204 217.04611146 C-123.91025718 234.03069567 -123.96447008 251.01525529 -124 268 C-127.86385702 266.50439432 -131.22319736 264.75040643 -134.74609375 262.55859375 C-135.83083984 261.89279297 -136.91558594 261.22699219 -138.03320312 260.54101562 C-140.3029837 259.1412359 -142.56714626 257.73317824 -144.83007812 256.32226562 C-145.91611328 255.65775391 -147.00214844 254.99324219 -148.12109375 254.30859375 C-149.1052124 253.69814209 -150.08933105 253.08769043 -151.10327148 252.45874023 C-154.16942498 250.91468064 -156.58212017 250.24034077 -160 250 C-162.99954163 251.97338265 -163.81968643 253.37583763 -164.8125 256.8125 C-163.09673241 263.54358823 -154.78243337 267.22785404 -149.1171875 270.60546875 C-147.04036201 271.80625625 -144.95956724 273.00020301 -142.875 274.1875 C-141.82957031 274.79013672 -140.78414063 275.39277344 -139.70703125 276.01367188 C-136.80859562 277.68274574 -133.90539413 279.34307564 -131 281 C-128.69 282.32 -126.38 283.64 -124 285 C-124 317.67 -124 350.34 -124 384 C-174.96195652 384 -174.96195652 384 -189.625 370.6875 C-190.56956055 369.84566162 -190.56956055 369.84566162 -191.53320312 368.98681641 C-193.36867363 367.33836141 -195.18676541 365.67284518 -197 364 C-198.45019531 362.67548828 -198.45019531 362.67548828 -199.9296875 361.32421875 C-213.63308217 348.26642474 -221.95659383 329.85174758 -223.203125 310.9140625 C-223.41839652 295.80917744 -220.18080676 283.39903635 -214.328125 269.66796875 C-211.27994909 262.42329846 -208.66184103 255.01478094 -205.96551514 247.63412476 C-204.33440604 243.18412216 -202.68081534 238.74251329 -201.02734375 234.30078125 C-200.69213715 233.39986252 -200.35693054 232.49894379 -200.01156616 231.57072449 C-199.32971051 229.73842205 -198.64771344 227.90617223 -197.96557617 226.07397461 C-196.93434254 223.30401887 -195.90366067 220.53385828 -194.87304688 217.76367188 C-191.36782807 208.34438032 -187.85386059 198.92847818 -184.3203125 189.51977539 C-182.89620714 185.7233022 -181.47897147 181.92432763 -180.0625 178.125 C-178.23422876 173.22860769 -176.35926801 168.35328514 -174.4440918 163.49023438 C-171.72544927 156.58182568 -169.15567331 149.64859897 -166.75 142.625 C-163.84360916 134.20193445 -160.72029759 125.87042814 -157.5 117.5625 C-157.06139648 116.41410645 -156.62279297 115.26571289 -156.17089844 114.08251953 C-141.27327077 76.01628549 -113.51322742 58.64152798 -78.26953125 41.140625 C-70.67417623 37.36797566 -63.17238512 33.43388341 -55.68850708 29.44543457 C-52.00296702 27.48143559 -48.31405192 25.52379882 -44.625 23.56640625 C-43.52503441 22.98262711 -43.52503441 22.98262711 -42.40284729 22.38705444 C-34.67031421 18.28753334 -26.90593867 14.25052851 -19.12915039 10.2355957 C-12.70331669 6.91184972 -6.33792843 3.48843017 0 0 Z " fill="#FCFCFC" transform="translate(513,648)"/>
<path d="M0 0 C1.28261719 -0.02578125 2.56523438 -0.0515625 3.88671875 -0.078125 C7.44207074 0.26241042 8.8657484 0.69794517 11.3125 3.25 C11.3125 3.91 11.3125 4.57 11.3125 5.25 C11.9725 5.25 12.6325 5.25 13.3125 5.25 C12.98065916 15.08908078 11.0988603 23.88005352 8.3125 33.25 C9.13492188 32.85167969 9.95734375 32.45335937 10.8046875 32.04296875 C16.78807968 29.2032757 22.60910616 26.64588197 29 24.89453125 C31.23189546 24.27246579 33.38216457 23.53155406 35.5625 22.75 C63.1592943 13.43669464 103.56002868 12.5328832 130.3125 25.25 C133.11961756 27.61135211 134.18555581 29.31907597 134.6875 33 C134.20085696 37.21757302 132.32045233 39.43226311 129.3125 42.25 C126.67717067 44.0377897 123.91344479 45.46300503 121.0625 46.875 C120.30904297 47.26179932 119.55558594 47.64859863 118.77929688 48.04711914 C114.84128387 50.05137748 110.87181192 51.93937696 106.8125 53.6875 C103.25788386 54.83054198 103.25788386 54.83054198 102.3125 57.25 C103.20066406 57.31316406 104.08882812 57.37632812 105.00390625 57.44140625 C133.82813483 60.2045765 160.47392224 72.1453938 179.75 94.0625 C189.86731268 106.88852583 196.4885238 121.75276634 201.3125 137.25 C201.87324219 138.84521484 201.87324219 138.84521484 202.4453125 140.47265625 C203.940634 145.26172646 204.13334753 149.45195303 202 154.125 C200.3125 156.25 200.3125 156.25 197.3125 158.25 C189.9623246 158.91664382 183.17888615 157.08261498 176.0625 155.375 C174.30679688 154.97087891 174.30679688 154.97087891 172.515625 154.55859375 C163.1009491 152.34528118 163.1009491 152.34528118 159.3125 150.25 C160.96777729 153.46318534 162.83842473 155.85212249 165.4375 158.3125 C177.90759145 170.49502121 186.62680398 186.81942971 194.875 202 C195.40005127 202.93368408 195.92510254 203.86736816 196.46606445 204.8293457 C199.97639317 211.44395981 202.02805713 217.67743408 201.3125 225.25 C199.7421875 228.4765625 199.7421875 228.4765625 196.3125 230.25 C191.66969505 230.87020387 187.11210131 230.76294856 182.4375 230.625 C181.07929392 230.60020939 179.72105589 230.57711522 178.36279297 230.55566406 C175.6279218 230.50693802 172.89426046 230.44130721 170.16015625 230.36035156 C166.79400606 230.26380969 163.42954952 230.20028918 160.0625 230.1484375 C137.37079382 229.65176541 115.9353924 224.91990736 94.3125 218.25 C93.39339844 217.96753418 92.47429687 217.68506836 91.52734375 217.39404297 C72.89074886 211.59214816 54.73717676 204.43337628 37.44384766 195.36279297 C35.0684174 194.1225626 32.68114536 192.90690207 30.29296875 191.69140625 C5.48835249 178.98910667 -21.00577401 164.06749275 -40.96875 144.3671875 C-42.62144518 143.03309744 -42.62144518 143.03309744 -44.63061523 143.47460938 C-47.1360405 144.41908779 -47.83240845 145.33527786 -49.31640625 147.5390625 C-49.78820312 148.22548828 -50.26 148.91191406 -50.74609375 149.61914062 C-51.24238281 150.36357422 -51.73867188 151.10800781 -52.25 151.875 C-53.3229223 153.44099321 -54.39716671 155.00608131 -55.47265625 156.5703125 C-56.01164551 157.35954102 -56.55063477 158.14876953 -57.10595703 158.96191406 C-59.397163 162.27669985 -61.78576308 165.51487349 -64.1875 168.75 C-68.0757319 174.0110844 -71.87147781 179.32958113 -75.625 184.6875 C-80.06834203 191.02433618 -84.63836911 197.2487218 -89.3125 203.41699219 C-93.09112448 208.41444738 -96.74799051 213.48822577 -100.30322266 218.6472168 C-102.80119671 222.21505749 -105.53545148 225.24933632 -108.6875 228.25 C-109.0175 228.58 -109.3475 228.91 -109.6875 229.25 C-113.83301109 229.7283282 -115.93878881 229.78976853 -119.375 227.3125 C-124.59348968 220.40152717 -126.59639247 212.55940728 -128.3125 204.1875 C-128.52414795 203.1680127 -128.7357959 202.14852539 -128.95385742 201.09814453 C-129.55191358 198.15225889 -130.12652263 195.20314889 -130.6875 192.25 C-130.82462402 191.53956543 -130.96174805 190.82913086 -131.10302734 190.09716797 C-136.49092116 160.80192019 -132.50542443 129.34873039 -123 101.375 C-122.78129242 100.72590668 -122.56258484 100.07681335 -122.33724976 99.40805054 C-109.61601738 61.77433259 -86.68640896 31.49031907 -50.92333984 13.33251953 C-35.37881404 5.80637546 -17.29654104 0.20986703 0 0 Z " fill="#010101" transform="translate(589.6875,233.75)"/>
<path d="M0 0 C2.50041894 0.08168338 3.83455801 0.19140582 6.0625 1.375 C7.68801601 4.52443728 7.47026157 6.81740081 7.0625 10.3125 C6.19463503 12.19083685 5.17892136 13.88878058 4.0859375 15.64453125 C-0.80963916 23.62320009 0.4913837 32.8123086 2.5625 41.5 C5.61306874 52.04224816 10.01605904 65.63593954 20.0625 71.3125 C20.73925781 71.70566406 21.41601562 72.09882812 22.11328125 72.50390625 C27.28422433 75.13989322 31.90268561 75.77791522 37.6796875 75.84375 C40.0625 76.3125 40.0625 76.3125 41.67456055 77.94458008 C43.45141189 80.97601036 43.51989779 83.16353368 43.65234375 86.66796875 C43.71172119 87.9216626 43.77109863 89.17535645 43.83227539 90.46704102 C43.85887238 91.12568146 43.88546936 91.7843219 43.91287231 92.46292114 C45.36757851 126.47451242 57.83340229 156.10127825 82.70703125 179.8359375 C105.96594443 199.71237005 136.28582297 211.14535422 167.0625 209.3125 C199.08470551 206.66055751 229.94128017 193.07747994 251.0625 168.3125 C269.14529793 145.4588453 278.19790264 119.11648908 278.59692383 90.1237793 C278.72837518 84.83813653 279.11706289 80.79746538 282.0625 76.3125 C285.02582615 75.41574476 287.23211112 74.99702959 290.25 74.75 C297.30421061 73.82962865 302.08551976 72.7191476 307.0625 67.3125 C307.67222656 66.69761719 308.28195312 66.08273437 308.91015625 65.44921875 C317.28717153 56.00506777 320.25486605 42.51548787 320.1875 30.1875 C320.19136719 29.47207031 320.19523437 28.75664062 320.19921875 28.01953125 C320.19329654 24.85115016 320.07146618 22.33939855 319.0625 19.3125 C318.89451205 17.48390987 318.79687922 15.64819173 318.75 13.8125 C318.71261719 12.8534375 318.67523437 11.894375 318.63671875 10.90625 C319.0625 8.3125 319.0625 8.3125 320.890625 6.4921875 C323.81597421 4.90323883 325.78239914 4.89376372 329.0625 5.3125 C332.84572865 8.14992149 334.39638609 11.72898194 335.0625 16.3125 C336.33427096 37.87672545 335.04369929 58.76854734 321.1875 76.375 C314.475654 83.28584952 306.33520456 87.82846434 297.0625 90.3125 C296.0725 90.3125 295.0825 90.3125 294.0625 90.3125 C294.08570313 91.00472656 294.10890625 91.69695312 294.1328125 92.41015625 C294.54050018 114.51265242 289.10101445 135.33002971 278.13671875 154.44140625 C276.47299825 157.37850467 275.42004502 159.90570313 275.0625 163.3125 C275.87400513 163.47093384 275.87400513 163.47093384 276.7019043 163.63256836 C279.63861844 164.47844165 282.12265341 165.7753019 284.83203125 167.19140625 C285.96125 167.77921875 287.09046875 168.36703125 288.25390625 168.97265625 C289.4610204 169.60661301 290.66805011 170.24073058 291.875 170.875 C293.10661922 171.51851941 294.33839057 172.16174777 295.5703125 172.8046875 C314.26046392 182.57025212 314.26046392 182.57025212 323.41796875 187.60839844 C330.29028908 191.38315833 337.22972704 195.0175123 344.20141602 198.60446167 C347.39671566 200.24932002 350.58872507 201.90054586 353.78125 203.55078125 C357.20122526 205.31805494 360.62133838 207.08505314 364.04296875 208.84912109 C389.94169627 222.21910287 414.77634594 237.19089353 428.0625 264.3125 C428.82626953 265.735625 428.82626953 265.735625 429.60546875 267.1875 C434.78196944 277.02408089 438.46068348 287.25506172 442.14550781 297.7265625 C443.38782988 301.22993718 444.68555503 304.71066958 446 308.1875 C446.23283691 308.80641113 446.46567383 309.42532227 446.70556641 310.06298828 C447.82800545 313.04542638 448.95424617 316.0264154 450.08203125 319.00683594 C454.36261323 330.32466443 458.62518107 341.63922159 462.50366211 353.10253906 C464.38233204 358.58910233 466.50483258 363.96441125 468.67546082 369.34036255 C471.59702116 376.59664976 474.33154397 383.9203345 477.0625 391.25 C477.56233993 392.58795044 478.06233983 393.92584112 478.5625 395.26367188 C479.56290674 397.94004533 480.56238687 400.6167622 481.5612793 403.29370117 C482.8134434 406.64790691 484.07016399 410.00038372 485.32853699 413.3522644 C488.25202899 421.1396784 491.1695697 428.9292229 494.05004883 436.73266602 C494.5202425 438.00384536 494.99227588 439.2743456 495.46606445 440.54418945 C505.48265854 467.40205809 508.03073117 493.3723123 496.09521484 520.14501953 C486.93547063 539.36965526 470.61377487 553.39855351 453.8125 565.875 C452.22695312 567.05255859 452.22695312 567.05255859 450.609375 568.25390625 C443.49609964 572.80151778 435.49033411 573.75776685 427.22913551 573.69561005 C426.28752158 573.70056956 425.34590765 573.70552908 424.37575996 573.71063888 C421.23259603 573.72355279 418.08985984 573.71522355 414.94668579 573.70690918 C412.66558989 573.71180005 410.38449648 573.71799076 408.10340726 573.72536707 C401.84406052 573.74176453 395.58483974 573.739449 389.32547903 573.7339921 C383.26538097 573.73159608 377.20531965 573.74324561 371.14523532 573.75436524 C357.22306804 573.779255 343.30093916 573.78379526 329.3787532 573.78189927 C318.62727685 573.78052547 307.8758138 573.78434741 297.12434006 573.79182434 C295.57893077 573.79287468 294.03352149 573.7939223 292.4881122 573.7949672 C291.72096217 573.79548655 290.95381213 573.79600589 290.16341513 573.79654097 C289.39485164 573.79706112 288.62628816 573.79758126 287.83443487 573.79811716 C286.67964088 573.79890315 286.67964088 573.79890315 285.50151772 573.79970502 C263.85307592 573.81428518 242.204639 573.82257216 220.5561924 573.81795502 C219.74033346 573.81778306 218.92447451 573.81761111 218.08389257 573.81743394 C213.94892463 573.81654507 209.8139567 573.81560026 205.67898877 573.81463593 C204.8577909 573.8144449 204.03659303 573.81425387 203.19051038 573.81405704 C201.52984976 573.81366995 199.86918915 573.81327962 198.20852853 573.81288607 C172.36749806 573.80691579 146.52655715 573.82235686 120.68554688 573.85449219 C91.64371453 573.89057749 62.60193897 573.90990077 33.56008279 573.90495348 C30.46281903 573.90448351 27.36555525 573.90407326 24.26829147 573.90370178 C23.50568334 573.9035994 22.7430752 573.90349701 21.95735773 573.90339152 C10.45119697 573.90219729 -1.05490238 573.91415591 -12.5610466 573.93284607 C-25.64824205 573.95409432 -38.73530878 573.95792137 -51.82250999 573.93854648 C-58.49944174 573.92913631 -65.17608555 573.92826587 -71.85301399 573.94890213 C-77.96720177 573.96759018 -84.08092274 573.96313215 -90.19509263 573.94035631 C-92.40495291 573.9361652 -94.61484882 573.94038761 -96.82467143 573.95395225 C-112.54019248 574.04383712 -123.76279671 572.79094159 -136 562.0625 C-137.36705081 560.90478649 -138.73423879 559.74723493 -140.1015625 558.58984375 C-140.75415039 558.02894043 -141.40673828 557.46803711 -142.07910156 556.89013672 C-143.72274824 555.49480766 -145.38794544 554.14457674 -147.0859375 552.81640625 C-158.42574645 543.90655636 -166.06309823 533.83922743 -172.9375 521.3125 C-173.47375 520.33667969 -174.01 519.36085938 -174.5625 518.35546875 C-176.18997896 514.75374685 -177.15540447 511.21019989 -178.0625 507.375 C-178.23136719 506.69759766 -178.40023438 506.02019531 -178.57421875 505.32226562 C-182.08167675 490.91959362 -182.98129154 473.69744595 -178.9375 459.3125 C-178.4425 457.54326172 -178.4425 457.54326172 -177.9375 455.73828125 C-175.71218205 448.12695241 -173.01613228 440.7312844 -170.08935547 433.36547852 C-166.71868695 424.85555897 -163.55234292 416.27095856 -160.375 407.6875 C-160.10163818 406.9491391 -159.82827637 406.2107782 -159.54663086 405.45004272 C-159.27794189 404.72427032 -159.00925293 403.99849792 -158.73242188 403.25073242 C-158.46553055 402.52985947 -158.19863922 401.80898651 -157.92366028 401.06626892 C-157.3900658 399.62496426 -156.85660761 398.18360914 -156.32328796 396.74220276 C-154.22664051 391.08018852 -152.10999182 385.42581605 -149.97947693 379.77645874 C-147.95800353 374.40493336 -146.02443482 369.00540134 -144.11328125 363.59375 C-142.76031789 359.81803828 -141.35579326 356.06406017 -139.9375 352.3125 C-139.64319092 351.53310059 -139.34888184 350.75370117 -139.0456543 349.95068359 C-138.07447025 347.38288408 -137.10036857 344.81621289 -136.125 342.25 C-135.7746167 341.32751465 -135.4242334 340.4050293 -135.06323242 339.45458984 C-133.01834135 334.08948926 -130.91714302 328.75429906 -128.75 323.4375 C-126.30057944 317.37700956 -124.19426333 311.26723597 -122.2109375 305.04296875 C-120.93965529 301.3188138 -119.51474695 297.69485213 -118.03515625 294.05004883 C-116.87881418 291.16613788 -115.77449908 288.26569854 -114.67578125 285.359375 C-110.12614668 273.46730717 -105.59622789 262.54277157 -97.9375 252.3125 C-97.29296875 251.43078125 -96.6484375 250.5490625 -95.984375 249.640625 C-81.0851424 230.13837745 -61.44800801 219.01388263 -40.03411865 208.12887573 C-26.97677279 201.48768863 -14.0491474 194.64688088 -1.22265625 187.56884766 C6.44130256 183.35530791 14.14976778 179.23180753 22 175.375 C27.69919735 172.5642242 33.21340258 169.46157908 38.72045898 166.29516602 C41.4790871 164.71748907 44.03880639 163.32039787 47.0625 162.3125 C45.84884539 158.26698464 44.27458724 154.63887868 42.2956543 150.90966797 C37.72698622 142.29288051 34.58070641 133.71761941 32.0625 124.3125 C31.7428125 123.18585938 31.423125 122.05921875 31.09375 120.8984375 C28.52327638 110.73554644 28.77997953 100.71343873 29.0625 90.3125 C27.23332031 90.126875 27.23332031 90.126875 25.3671875 89.9375 C14.53602205 88.5651394 6.11562985 81.32760424 -0.72265625 73.1875 C-5.08452883 67.11880772 -7.58114639 60.35791849 -9.9375 53.3125 C-10.33324219 52.18070313 -10.72898437 51.04890625 -11.13671875 49.8828125 C-13.493521 42.32450633 -14.33971947 35.32651621 -14.4375 27.4375 C-14.45594971 26.56996094 -14.47439941 25.70242188 -14.4934082 24.80859375 C-14.40987644 16.16760513 -10.02552681 0.79567673 0 0 Z M51.6015625 176.5859375 C50.19741089 177.32034058 50.19741089 177.32034058 48.76489258 178.06958008 C47.24158325 178.87045044 47.24158325 178.87045044 45.6875 179.6875 C44.11681763 180.51060669 44.11681763 180.51060669 42.5144043 181.3503418 C40.36929466 182.47496397 38.22468286 183.60053622 36.08056641 184.72705078 C33.48598238 186.09003644 30.88990663 187.45010098 28.29296875 188.80859375 C21.24875749 192.49919338 14.22220553 196.22083965 7.21875 199.98828125 C4.77089377 201.30479994 2.32300725 202.62126215 -0.125 203.9375 C-0.73667023 204.26641235 -1.34834045 204.59532471 -1.97854614 204.9342041 C-8.62824476 208.50703164 -15.28350573 212.05234321 -22.0625 215.375 C-72.74586035 240.35122537 -93.29872115 266.63720327 -111.36352539 319.00317383 C-113.52536726 325.23682244 -115.87881184 331.37754432 -118.30834961 337.51098633 C-120.84662087 343.96512241 -123.14468488 350.49269906 -125.36523438 357.0625 C-127.22739903 362.50785191 -129.36557759 367.79354755 -131.60351562 373.09472656 C-133.98831282 378.84722053 -136.1751629 384.67481282 -138.375 390.5 C-138.73541885 391.45185684 -138.73541885 391.45185684 -139.1031189 392.42294312 C-142.14440667 400.45728822 -145.12056339 408.50950321 -147.94555664 416.62255859 C-149.51948218 421.14240404 -151.13882999 425.64136116 -152.8125 430.125 C-153.05307129 430.77186768 -153.29364258 431.41873535 -153.54150391 432.08520508 C-154.94853804 435.82403944 -156.43284493 439.51952958 -157.98828125 443.19921875 C-167.31439061 465.38973524 -170.05774256 485.85885675 -161.625 509.0625 C-157.38953408 519.43122221 -151.67524784 527.26087526 -143.9375 535.3125 C-143.36128906 535.92867187 -142.78507812 536.54484375 -142.19140625 537.1796875 C-133.69479029 546.02268828 -124.59681355 552.0945671 -113.9375 558.3125 C-98.7575 558.3125 -83.5775 558.3125 -67.9375 558.3125 C-67.9375 525.6425 -67.9375 492.9725 -67.9375 459.3125 C-73.2175 456.3425 -78.4975 453.3725 -83.9375 450.3125 C-87.16315905 448.41617459 -90.3721203 446.51446984 -93.5625 444.5625 C-94.66658203 443.89927734 -94.66658203 443.89927734 -95.79296875 443.22265625 C-100.16487997 440.5557122 -104.19797729 437.82556093 -107.9375 434.3125 C-108.5625 431.25 -108.5625 431.25 -107.9375 428.3125 C-106.3125 425.875 -106.3125 425.875 -103.9375 424.3125 C-97.77699997 424.41707639 -93.119604 427.90650642 -88.0625 431.0625 C-87.20269531 431.5884375 -86.34289062 432.114375 -85.45703125 432.65625 C-82.15107334 434.68296775 -78.85563486 436.72284404 -75.59277344 438.81835938 C-74.5220459 439.50381836 -74.5220459 439.50381836 -73.4296875 440.203125 C-72.48778564 440.81462402 -72.48778564 440.81462402 -71.52685547 441.43847656 C-69.94772303 442.47312236 -69.94772303 442.47312236 -67.9375 442.3125 C-67.93603344 441.61142467 -67.93456688 440.91034933 -67.93305588 440.18802929 C-67.89592998 423.09307255 -67.83683896 405.99833123 -67.75359726 388.9035368 C-67.7138656 380.63645306 -67.68144339 372.36946371 -67.66650391 364.10229492 C-67.65345681 356.89276188 -67.62641463 349.68343702 -67.58288693 342.47402126 C-67.56034043 338.66014231 -67.54458519 334.84651947 -67.54561615 331.03256798 C-67.54636683 327.43483624 -67.52825463 323.83766916 -67.49633217 320.24008369 C-67.4838944 318.30635622 -67.4908653 316.37253357 -67.49864197 314.43878174 C-67.3589872 302.6315094 -64.39139623 292.8327013 -55.9375 284.3125 C-49.09481905 278.75729212 -42.80627753 276.06549176 -33.90211105 276.05523109 C-32.87053339 276.04997198 -32.87053339 276.04997198 -31.81811577 276.04460663 C-29.51462879 276.03530585 -27.21139536 276.04021246 -24.90789795 276.04507446 C-23.2393003 276.04133753 -21.57070441 276.03673584 -19.90211129 276.03134382 C-15.31731606 276.01910364 -10.73259375 276.01937549 -6.1477859 276.02173257 C-1.20285716 276.02214048 3.74204812 276.01110403 8.68696594 276.00161743 C18.37504885 275.98500073 28.06310742 275.97950758 37.75120339 275.97839268 C45.62616945 275.97744249 53.50112748 275.97333368 61.376091 275.96699142 C83.70168856 275.94937696 106.02726689 275.94015284 128.35287145 275.94165237 C129.556585 275.94173228 130.76029856 275.9418122 132.00048828 275.94189453 C133.80826258 275.94201717 133.80826258 275.94201717 135.65255758 275.94214229 C155.18406331 275.94295519 174.71549191 275.92381723 194.24697533 275.8956178 C214.30041913 275.86689318 234.35382532 275.85307728 254.40729022 275.85480535 C265.66630735 275.85546941 276.92524364 275.84997006 288.18424225 275.82844925 C297.77064101 275.810243 307.35692229 275.80588556 316.94333085 275.8194681 C321.83368715 275.8260006 326.72381802 275.82610467 331.61415291 275.8087616 C336.09383191 275.7930384 340.57310661 275.79588685 345.05277571 275.81332986 C346.6705312 275.81640141 348.2883168 275.81276149 349.90603676 275.80160971 C361.4679747 275.72720666 372.36287268 276.9113893 381.0625 285.3125 C388.97200131 295.05014076 390.50862185 303.80601652 390.49487305 316.07226562 C390.50390231 317.4527473 390.51423237 318.83322098 390.52575684 320.21368408 C390.55321656 323.94038572 390.56259623 327.66693478 390.56861091 331.39372444 C390.57802347 335.29619458 390.60422908 339.19855204 390.62861633 343.10095215 C390.67220602 350.48135085 390.70079913 357.86172758 390.72393972 365.24221563 C390.75103188 373.64859412 390.79494084 382.05485881 390.84022844 390.46115589 C390.93296678 407.74487858 391.00469687 425.02862588 391.0625 442.3125 C394.18785422 441.08416951 397.09874885 439.81910112 399.98828125 438.10546875 C400.70306641 437.68330078 401.41785156 437.26113281 402.15429688 436.82617188 C402.88712891 436.38853516 403.61996094 435.95089844 404.375 435.5 C405.09623047 435.07396484 405.81746094 434.64792969 406.56054688 434.20898438 C410.85805416 431.66131414 415.08279658 429.03582764 419.24560547 426.27270508 C422.27121763 424.67370849 424.75347798 424.79343772 428.0625 425.3125 C430 426.4375 430 426.4375 431.0625 428.3125 C431.6875 431.125 431.6875 431.125 431.0625 434.3125 C426.24644512 439.58722678 420.10960334 442.71764582 413.9140625 446.15234375 C409.21601289 448.76250564 404.6287007 451.55113657 400.03710938 454.34301758 C397.08509288 456.1302082 394.15378468 457.76685766 391.0625 459.3125 C391.0625 491.9825 391.0625 524.6525 391.0625 558.3125 C428.43166174 560.87295842 428.43166174 560.87295842 454.0625 546.3125 C455.30193359 545.34957031 455.30193359 545.34957031 456.56640625 544.3671875 C468.61168058 534.98842428 478.07209741 524.51775435 484.0625 510.3125 C484.53042969 509.2090625 484.99835937 508.105625 485.48046875 506.96875 C491.80849106 490.52635514 490.91145693 471.74257967 485.0625 455.3125 C484.65386719 454.09046875 484.24523437 452.8684375 483.82421875 451.609375 C482.11622441 446.6387413 480.2933183 441.78372679 478.1171875 437 C476.01292409 432.31914788 474.32880202 427.54651737 472.6875 422.6875 C470.61873618 416.66322424 468.47485355 410.70793086 466.0625 404.8125 C463.82281454 399.32203747 461.80146645 393.79493357 459.875 388.1875 C456.58442851 378.62997005 453.01119105 369.19050041 449.40283203 359.74902344 C445.93870575 350.67364156 442.57381468 341.56511845 439.25 332.4375 C436.12213774 323.8485739 432.92230117 315.31733085 429.4453125 306.86328125 C428.0441446 303.26536707 426.79853653 299.63927873 425.56762695 295.98071289 C411.93188055 255.61058215 385.69169217 236.67067806 349.05566406 217.85546875 C344.91835371 215.72269538 340.80169442 213.55193469 336.6875 211.375 C331.31201184 208.53398036 325.9235683 205.7199896 320.51953125 202.93359375 C309.58427948 197.2939673 298.68615007 191.62838848 287.96191406 185.59570312 C280.52585589 181.42193834 273.02448538 177.40009217 265.0625 174.3125 C264.31226563 175.14652344 263.56203125 175.98054687 262.7890625 176.83984375 C252.58479893 188.10180493 242.2135659 197.59274815 229.0625 205.3125 C228.40330566 205.69970215 227.74411133 206.0869043 227.06494141 206.48583984 C199.33304228 222.51327546 162.95853204 229.2490602 131.50390625 221.33984375 C130.36824219 221.00082031 129.23257812 220.66179687 128.0625 220.3125 C127.38815918 220.12445801 126.71381836 219.93641602 126.01904297 219.74267578 C109.25776022 215.02187533 93.66590962 207.22109789 80.0625 196.3125 C78.73412109 195.30316406 78.73412109 195.30316406 77.37890625 194.2734375 C70.67140995 189.04063896 65.03706085 183.16902629 59.3984375 176.83984375 C58.62757813 176.00582031 57.85671875 175.17179688 57.0625 174.3125 C55.1101163 174.3125 53.28281362 175.70438867 51.6015625 176.5859375 Z M-46.9609375 295.09375 C-47.40695312 295.6609375 -47.85296875 296.228125 -48.3125 296.8125 C-48.77398437 297.3796875 -49.23546875 297.946875 -49.7109375 298.53125 C-54.37202712 305.30022092 -54.08215489 312.51400089 -54.05775452 320.44906616 C-54.05861053 321.46446472 -54.05946655 322.47986328 -54.06034851 323.52603149 C-54.06200291 326.93713133 -54.05648131 330.348182 -54.05102539 333.75927734 C-54.05071905 336.24306041 -54.05085255 338.72684357 -54.05139065 341.2106266 C-54.0515936 347.19012134 -54.04730961 353.16959707 -54.04088932 359.14908705 C-54.03368382 366.06724747 -54.03289427 372.98540037 -54.03210449 379.90356445 C-54.02685609 398.16487868 -54.01289496 416.42618957 -54 434.6875 C-53.979375 475.48375 -53.95875 516.28 -53.9375 558.3125 C88.2925 558.3125 230.5225 558.3125 377.0625 558.3125 C377.124375 517.248125 377.18625 476.18375 377.25 433.875 C377.27731201 420.90517822 377.30462402 407.93535645 377.33276367 394.57250977 C377.3427965 382.95415616 377.3427965 382.95415616 377.34883118 371.33580017 C377.35162795 366.15782938 377.36262898 360.97992897 377.37922668 355.80198669 C377.40036896 349.19649749 377.40597292 342.5911158 377.40171683 335.98558605 C377.40260679 333.56180601 377.40855405 331.13802129 377.42014539 328.7142688 C377.43508583 325.43792938 377.43146327 322.16210901 377.42326355 318.88575745 C377.43200154 317.93950973 377.44073954 316.993262 377.44974232 316.01834011 C377.40253831 308.99187739 376.51085022 302.36710837 372.01171875 296.75390625 C371.26535156 296.13386719 370.51898437 295.51382812 369.75 294.875 C368.64205078 293.91787109 368.64205078 293.91787109 367.51171875 292.94140625 C362.61018052 289.68153154 357.96148397 289.06206067 352.16208076 289.05523109 C351.15239736 289.04997198 351.15239736 289.04997198 350.1223163 289.04460663 C347.86849949 289.03530839 345.61494196 289.04021178 343.3611145 289.04507446 C341.72821463 289.04133741 340.09531654 289.03673567 338.4624213 289.03134382 C333.97637856 289.01910533 329.49041034 289.01937528 325.00435472 289.02173257 C320.16580444 289.02214052 315.32727813 289.01110376 310.48873901 289.00161743 C301.00987722 288.98500225 291.5310403 288.97950767 282.05216517 288.97839268 C274.34832984 288.97744253 266.64450274 288.97333392 258.94067001 288.96699142 C237.10297879 288.94937829 215.26530724 288.94015277 193.42760886 288.94165237 C192.25025282 288.94173228 191.07289678 288.9418122 189.85986328 288.94189453 C188.68107132 288.94197629 187.50227937 288.94205805 186.28776644 288.94214229 C167.17846635 288.94295541 148.06924504 288.92381143 128.95996775 288.8956178 C109.34271827 288.86690285 89.72550723 288.85307671 70.10823619 288.85480535 C59.0929684 288.85546969 48.07778321 288.84995805 37.06253433 288.82844925 C27.68505103 288.81025583 18.3076878 288.80587506 8.93019451 288.8194681 C4.14539807 288.82600678 -0.63916792 288.82608243 -5.42394257 288.8087616 C-9.80483101 288.79306583 -14.18530557 288.79585862 -18.5661837 288.81332986 C-20.15025648 288.81640745 -21.73435988 288.8127388 -23.31839655 288.80160971 C-32.45782169 288.74165517 -39.76836666 288.76206602 -46.9609375 295.09375 Z " fill="#070707" transform="translate(456.9375,473.6875)"/>
<path d="M0 0 C0.82409536 -0.00583219 1.64819072 -0.01166439 2.49725866 -0.01767331 C3.84724817 -0.01200433 3.84724817 -0.01200433 5.22451019 -0.00622082 C6.18474043 -0.01004636 7.14497067 -0.01387191 8.1342988 -0.01781338 C11.36018463 -0.02815353 14.5858928 -0.0241493 17.81179047 -0.02018261 C20.12113358 -0.02452848 22.43047525 -0.02971121 24.73981476 -0.03567028 C31.01858804 -0.04908393 37.29730122 -0.04963639 43.57608604 -0.04710698 C48.8125013 -0.04603902 54.04890431 -0.05091606 59.28531694 -0.0557124 C72.34135842 -0.06745069 85.39736556 -0.06657779 98.45340925 -0.06015559 C109.79600763 -0.05498469 121.13852018 -0.06624598 132.48110157 -0.08525381 C144.12490468 -0.10461704 155.76866347 -0.11259929 167.41248274 -0.10913056 C173.95075189 -0.10731406 180.4889424 -0.10999049 187.02719879 -0.1238451 C193.17329206 -0.13638101 199.31921293 -0.13451957 205.46530342 -0.12143421 C207.72443257 -0.11905974 209.9835737 -0.12183405 212.24268913 -0.13005733 C215.31975854 -0.14045276 218.39624172 -0.13248215 221.47328949 -0.11974621 C222.823279 -0.13080764 222.823279 -0.13080764 224.20054102 -0.14209253 C227.78154025 -0.11077743 230.19849414 -0.08401319 233.40924072 1.58694649 C234.84889984 3.25447559 234.84889984 3.25447559 235.25905609 6.30916309 C234.75225962 11.18406251 233.62804903 15.67451976 232.28639984 20.37947559 C232.01972504 21.33072315 231.75305023 22.28197071 231.47829437 23.26204395 C229.51648829 30.15219283 227.43018135 37.0012814 225.22389984 43.81697559 C224.94731537 44.69047657 224.6707309 45.56397755 224.38576508 46.46394825 C222.50564526 52.11375552 220.63784763 56.45866531 215.44655609 59.80135059 C214.19165375 60.39689747 214.19165375 60.39689747 212.91139984 61.00447559 C212.0773764 61.41181934 211.24335297 61.81916309 210.38405609 62.23885059 C206.15244023 63.93410502 202.15390292 64.3808772 197.61891937 64.41560841 C196.60081177 64.42521595 195.58270416 64.43482349 194.53374481 64.44472218 C192.89923874 64.45109699 192.89923874 64.45109699 191.23171234 64.45760059 C190.10119446 64.46330067 188.97067657 64.46900074 187.80590057 64.47487354 C185.41708559 64.48430793 183.02825768 64.49085131 180.63942719 64.49470997 C176.99417611 64.50442157 173.34948759 64.53546302 169.70436859 64.56697559 C167.38015318 64.57350558 165.05593375 64.57875607 162.73171234 64.58260059 C161.10327896 64.6011208 161.10327896 64.6011208 159.44194794 64.62001514 C153.41955742 64.60237206 149.17772533 64.10463395 143.84889984 61.25447559 C142.83827484 60.73885059 141.82764984 60.22322559 140.78639984 59.69197559 C132.1031874 52.48675676 129.54493064 41.01929655 126.47389984 30.62947559 C126.02070951 29.13300675 125.56629067 27.63690937 125.11061859 26.14119434 C124.00686831 22.51687979 122.92864818 18.88635637 121.84889984 15.25447559 C115.90889984 14.92447559 109.96889984 14.59447559 103.84889984 14.25447559 C103.47764984 16.54385059 103.47764984 16.54385059 103.09889984 18.87947559 C97.15707159 51.33099914 97.15707159 51.33099914 86.22389984 60.44197559 C78.50429761 64.5876879 69.83815979 64.56297617 61.25124359 64.55525684 C60.17693588 64.55954197 59.10262817 64.5638271 57.99576569 64.56824207 C55.73937938 64.57395003 53.48297469 64.57451194 51.22658539 64.57014942 C47.79242699 64.56698115 44.35912449 64.59052265 40.92507172 64.61580372 C38.72129675 64.61807638 36.51751949 64.61878036 34.31374359 64.61775684 C33.29787674 64.62696659 32.28200989 64.63617634 31.23535919 64.64566517 C23.50099391 64.595901 15.47713603 63.67729947 9.66139984 58.06697559 C0.65552859 48.24076755 -1.91268971 31.82653131 -5.52072906 19.34773731 C-6.06534487 17.5392416 -6.68367753 15.75325078 -7.31516266 13.97322559 C-8.14657255 11.2692009 -8.36131757 9.19165019 -8.27610016 6.37947559 C-8.25805328 5.59830372 -8.24000641 4.81713184 -8.22141266 4.01228809 C-8.19820953 3.43220997 -8.17500641 2.85213184 -8.15110016 2.25447559 C-5.30364486 0.64454927 -3.26457947 0.00398439 0 0 Z " fill="#010101" transform="translate(505.1511001586914,476.7455244064331)"/>
<path d="M0 0 C6.52893155 6.71029076 8.39894921 13.91154356 8.453125 23.0078125 C8.45882507 23.75529755 8.46452515 24.50278259 8.47039795 25.2729187 C8.47982938 26.85478307 8.48637454 28.43666692 8.49023438 30.01855469 C8.49988318 32.40856491 8.53089925 34.79769345 8.5625 37.1875 C8.63669839 47.87584104 8.28931734 57.61687269 1.25 66.3125 C-3.92210803 71.33683352 -10.46557063 74.47756678 -17.6875 74.875 C-24.76224733 74.56644404 -30.44027666 71.32736504 -35.6875 66.75 C-36.368125 65.945625 -37.04875 65.14125 -37.75 64.3125 C-38.306875 63.69375 -38.86375 63.075 -39.4375 62.4375 C-42.93532825 56.7743495 -43.06820036 50.65524413 -43.0859375 44.1953125 C-43.0925943 43.3387204 -43.0992511 42.4821283 -43.10610962 41.59957886 C-43.11618719 39.79606254 -43.12092816 37.99250929 -43.12060547 36.18896484 C-43.12497658 33.45216537 -43.16134141 30.71698342 -43.19921875 27.98046875 C-43.20508866 26.21875545 -43.20905689 24.45703458 -43.2109375 22.6953125 C-43.22530853 21.88877228 -43.23967957 21.08223206 -43.25448608 20.25125122 C-43.19845572 13.17097522 -41.18378766 7.21091985 -36.6015625 1.75390625 C-24.81201402 -8.19481799 -12.92148446 -7.92909274 0 0 Z " fill="#080808" transform="translate(904.75,533.6875)"/>
<path d="M0 0 C5.92754029 3.85407264 8.81604402 8.32296462 11 15 C11.5367428 18.32370921 11.60866703 21.57097378 11.6015625 24.93359375 C11.61013275 25.85157242 11.618703 26.76955109 11.62753296 27.71534729 C11.63894541 29.64393841 11.64007511 31.57261556 11.63134766 33.5012207 C11.62502171 36.42745755 11.67203878 39.34965157 11.72265625 42.27539062 C11.79680712 53.30902776 11.36424069 61.17928818 3.52612305 69.57958984 C-2.95151209 75.58936576 -9.31586018 76.57830109 -17.84765625 76.34375 C-25.04247993 75.55918434 -29.46324372 71.98221176 -34.45703125 66.9765625 C-39.03254174 61.11527565 -39.46718991 56.052319 -39.46875 48.88671875 C-39.47636353 47.91773148 -39.48397705 46.9487442 -39.49182129 45.95039368 C-39.50259784 43.90551318 -39.50548537 41.86057775 -39.50097656 39.81567383 C-39.50000626 36.70754803 -39.54161468 33.6019092 -39.5859375 30.49414062 C-39.59114676 28.5000051 -39.59383266 26.50586107 -39.59375 24.51171875 C-39.61014526 23.59267258 -39.62654053 22.6736264 -39.64343262 21.72673035 C-39.56494767 14.29703465 -37.36375041 8.64535374 -32.29016113 3.14701843 C-23.02678196 -5.65024604 -10.82684016 -6.45988047 0 0 Z " fill="#040404" transform="translate(1021,642)"/>
<path d="M0 0 C6.62914993 3.04389319 11.77028449 7.71112038 15.16479492 14.20581055 C16.47034681 18.34592368 16.40297141 22.24163285 16.3984375 26.55859375 C16.40272263 27.46477951 16.40700775 28.37096527 16.41142273 29.30461121 C16.41715428 31.21844652 16.41767496 33.13230361 16.41333008 35.04614258 C16.41017822 37.95627573 16.43361571 40.86538361 16.45898438 43.77539062 C16.46125848 45.64062373 16.46196035 47.50585954 16.4609375 49.37109375 C16.47014725 50.23281693 16.47935699 51.0945401 16.48884583 51.9823761 C16.42742658 60.10873336 14.34993444 66.56419191 8.7734375 72.625 C4.86599948 76.21364937 0.43726037 78.66735514 -4.90234375 79.1640625 C-5.98128906 79.27621094 -5.98128906 79.27621094 -7.08203125 79.390625 C-14.79662569 79.84725208 -20.94286654 77.67340967 -26.7578125 72.51953125 C-32.96848649 65.72612735 -34.36908753 59.11732146 -34.37109375 50.171875 C-34.37870728 49.22649872 -34.3863208 48.28112244 -34.39416504 47.30709839 C-34.40492778 45.31527332 -34.40783478 43.323392 -34.40332031 41.33154297 C-34.40234877 38.30469412 -34.44399845 35.28038933 -34.48828125 32.25390625 C-34.49348978 30.30990107 -34.49617642 28.36588716 -34.49609375 26.421875 C-34.51248901 25.52783966 -34.52888428 24.63380432 -34.54577637 23.712677 C-34.47464672 17.15697113 -32.74500924 12.49114622 -28.90234375 7.1640625 C-26.296875 4.7890625 -26.296875 4.7890625 -23.71484375 3.1640625 C-22.85503906 2.6071875 -21.99523437 2.0503125 -21.109375 1.4765625 C-14.84823948 -2.24687385 -6.92756872 -1.99528897 0 0 Z " fill="#050505" transform="translate(998.90234375,528.8359375)"/>
<path d="M0 0 C5.39165517 3.59134346 9.51982933 7.93829356 12 14 C12.56997043 17.4096994 12.58501519 20.75934706 12.56640625 24.2109375 C12.57570412 25.66229599 12.57570412 25.66229599 12.58518982 27.14297485 C12.59226691 29.18189493 12.58915103 31.22087304 12.57641602 33.25976562 C12.56257072 36.35916954 12.59662907 39.45553896 12.63476562 42.5546875 C12.63571718 44.54427156 12.63385607 46.53385937 12.62890625 48.5234375 C12.64216446 49.43934662 12.65542267 50.35525574 12.66908264 51.29891968 C12.56338464 58.70066729 10.36983571 64.41154026 5.25978088 69.8531189 C-1.397529 76.05066758 -7.72534377 77.69751758 -16.70703125 77.48046875 C-23.29001748 76.51996186 -28.5096292 72.9370996 -32.9375 68.0625 C-37.37324452 61.47609147 -38.4550564 56.41963909 -38.3984375 48.62890625 C-38.40130768 47.74774643 -38.40417786 46.86658661 -38.40713501 45.95872498 C-38.40916719 44.10390578 -38.40369679 42.24906473 -38.39111328 40.39428711 C-38.37506665 37.57421314 -38.39098074 34.75557637 -38.41015625 31.93554688 C-38.40817329 30.12499687 -38.40432853 28.31444775 -38.3984375 26.50390625 C-38.40451019 25.67033096 -38.41058289 24.83675568 -38.4168396 23.97792053 C-38.31736072 15.58689284 -36.07477757 9.07477757 -30 3 C-20.41333792 -3.94141873 -10.94300596 -4.98690932 0 0 Z " fill="#050505" transform="translate(955,641)"/>
<path d="M0 0 C2.7043457 1.81518555 2.7043457 1.81518555 5.36328125 4.44921875 C5.86249588 4.93428391 6.36171051 5.41934906 6.87605286 5.91911316 C7.98820142 7.00368736 9.09263566 8.09621103 10.19049072 9.19525146 C12.12037342 11.12005673 14.07736751 13.01395135 16.04052734 14.90478516 C19.70436787 18.44227372 23.33353794 22.01295804 26.94946289 25.59936523 C28.45592984 27.08906992 29.96776671 28.57336163 31.48461914 30.05249023 C33.70374429 32.21703311 35.90612716 34.39741173 38.10546875 36.58203125 C38.78449753 37.23839066 39.46352631 37.89475006 40.16313171 38.57099915 C43.76069989 42.18505483 45.99607875 44.62348209 46 50 C44.92578125 52.265625 44.92578125 52.265625 43.3125 54.25 C42.79300781 54.91515625 42.27351562 55.5803125 41.73828125 56.265625 C39.92930189 58.07053923 38.2867197 58.91200284 36 60 C35.29848848 61.3153341 34.63474075 62.65117592 34 64 C32 66.25 32 66.25 30 68 C29.34 68 28.68 68 28 68 C27.77417236 68.55034912 27.54834473 69.10069824 27.31567383 69.66772461 C25.59909469 72.71067887 23.41676852 74.84281438 20.94921875 77.31640625 C20.20548759 78.06300758 20.20548759 78.06300758 19.44673157 78.82469177 C18.39931837 79.8734624 17.34938945 80.91972582 16.29711914 81.96362305 C14.69638421 83.55367509 13.1065645 85.15407645 11.51757812 86.75585938 C10.49543208 87.77668331 9.47266552 88.79688639 8.44921875 89.81640625 C7.52455811 90.73881104 6.59989746 91.66121582 5.6472168 92.61157227 C1.8682094 96.02114797 -0.44998034 98.02672448 -5.625 97.9375 C-9 97 -9 97 -10.9375 95.25 C-12.22855126 92.51600909 -12.34195113 91.00351232 -12 88 C-10.45092773 85.75048828 -10.45092773 85.75048828 -8.24609375 83.4453125 C-7.42351074 82.57680664 -6.60092773 81.70830078 -5.75341797 80.81347656 C-4.84479004 79.8850293 -3.93616211 78.95658203 -3 78 C-2.04432012 77.01280516 -1.08875588 76.02549834 -0.13330078 75.03808594 C2.35674365 72.47850617 4.87051671 69.94377671 7.39575195 67.41894531 C8.96529498 65.84716541 10.52659993 64.2674728 12.08789062 62.6875 C13.08805463 61.68440999 14.08868742 60.68178711 15.08984375 59.6796875 C16.43357056 58.32979736 16.43357056 58.32979736 17.80444336 56.95263672 C20 55 20 55 22 55 C22.28875 54.360625 22.5775 53.72125 22.875 53.0625 C24 51 24 51 26 50 C26.44017099 46.17708629 26.44017099 46.17708629 24.71801758 44.54174805 C23.78445435 43.81532104 23.78445435 43.81532104 22.83203125 43.07421875 C18.89243441 39.8202975 15.2487472 36.37644527 11.63671875 32.76953125 C11.07397247 32.20805389 10.5112262 31.64657654 9.931427 31.06808472 C8.77084291 29.90754156 7.61133952 28.74591672 6.45288086 27.58325195 C4.67740296 25.80237224 2.89658756 24.02695394 1.11523438 22.25195312 C-0.02375861 21.1123 -1.16244171 19.97233707 -2.30078125 18.83203125 C-2.82891922 18.30591751 -3.35705719 17.77980377 -3.90119934 17.23774719 C-9.18273365 11.92254547 -9.18273365 11.92254547 -11 9 C-10.87304813 5.88967921 -10.47953174 3.79921957 -8.875 1.125 C-5.86076985 -0.68353809 -3.446302 -0.32292816 0 0 Z " fill="#0A0A0A" transform="translate(899,382)"/>
<path d="M0 0 C0.80195297 -0.00686325 1.60390594 -0.0137265 2.43016052 -0.02079773 C5.08464197 -0.03911816 7.73853522 -0.03522031 10.39306641 -0.02954102 C12.23768303 -0.0341009 14.08229796 -0.03940589 15.9269104 -0.04542542 C19.79558201 -0.05436725 23.66404733 -0.05192192 27.53271484 -0.04199219 C32.48835897 -0.03051162 37.44328959 -0.05069441 42.39883995 -0.07990932 C46.20958984 -0.09826613 50.02016868 -0.09797973 53.83095169 -0.0922718 C55.65778223 -0.09211847 57.48462428 -0.09817289 59.31141281 -0.11056328 C61.86821798 -0.12545876 64.42370455 -0.11480694 66.98046875 -0.09765625 C67.73389053 -0.10732422 68.48731232 -0.11699219 69.26356506 -0.12695312 C72.93100392 -0.07549722 74.9749196 0.31185021 78.09780884 2.30162048 C80.11962891 4.40405273 80.11962891 4.40405273 80.60791016 6.54467773 C80.44514974 8.49780273 80.28238932 10.45092773 80.11962891 12.40405273 C75.41858256 15.1704659 71.54297789 15.84585228 66.18994141 15.82397461 C65.41841736 15.83244415 64.64689331 15.8409137 63.85198975 15.84963989 C61.31603256 15.87293129 58.7806847 15.87403412 56.24462891 15.87280273 C54.47395589 15.87990798 52.70328516 15.88760751 50.93261719 15.89587402 C47.22731112 15.90929995 43.52221808 15.91089563 39.81689453 15.9050293 C35.07540917 15.89912838 30.33494604 15.92974925 25.59365845 15.97014618 C21.93899048 15.99602749 18.28456875 15.99890035 14.62982178 15.99525452 C12.88195217 15.9969447 11.13407107 16.00657746 9.3862915 16.0243988 C6.93994112 16.0466034 4.49566134 16.03688189 2.04931641 16.01928711 C1.33225525 16.03255035 0.61519409 16.0458136 -0.12359619 16.05947876 C-3.91755127 15.99626321 -6.40693673 15.37360393 -9.37207031 13.09216309 C-11.88037109 10.40405273 -11.88037109 10.40405273 -11.94287109 6.77905273 C-9.81692462 0.02604628 -6.61270657 -0.03929934 0 0 Z " fill="#050505" transform="translate(978.88037109375,461.595947265625)"/>
<path d="M0 0 C3.01814267 0.73570848 4.11594123 2.07309651 6.03515625 4.49609375 C6.54981995 7.68359375 6.54981995 7.68359375 6.56860352 11.49609375 C6.57721909 12.19250977 6.58583466 12.88892578 6.5947113 13.60644531 C6.61737338 15.90337523 6.61063336 18.1990854 6.6015625 20.49609375 C6.60679777 22.09505577 6.6130739 23.6940147 6.62034607 25.29296875 C6.63075043 28.64207505 6.62618824 31.99075646 6.61157227 35.33984375 C6.59437741 39.63102965 6.61788658 43.92087747 6.65306187 48.21191406 C6.67502487 51.51311103 6.67359731 54.81398719 6.66529655 58.11523438 C6.66447654 59.69728056 6.67134957 61.27935019 6.68606758 62.86132812 C6.70349668 65.07375304 6.68899026 67.2837658 6.66625977 69.49609375 C6.66481712 71.38328125 6.66481712 71.38328125 6.66334534 73.30859375 C6.03515625 76.49609375 6.03515625 76.49609375 3.72227478 78.9375 C1.03515625 80.49609375 1.03515625 80.49609375 -2.58984375 80.43359375 C-7.08502412 79.18493254 -7.08502412 79.18493254 -8.96484375 76.49609375 C-9.34579468 73.38415527 -9.34579468 73.38415527 -9.35302734 69.50195312 C-9.3582843 68.79432327 -9.36354126 68.08669342 -9.36895752 67.35762024 C-9.38216322 65.01813698 -9.3734179 62.67933395 -9.36328125 60.33984375 C-9.36530183 58.71463897 -9.36821314 57.08943507 -9.37197876 55.4642334 C-9.37640287 52.05793629 -9.36996841 48.65187516 -9.35595703 45.24560547 C-9.33886492 40.87724779 -9.34870566 36.50944304 -9.36667442 32.14110565 C-9.37751002 28.78509345 -9.37406699 25.42921255 -9.36629105 22.07319641 C-9.36428841 20.46242711 -9.36675055 18.85164593 -9.37372971 17.2408905 C-9.38134073 14.99035014 -9.36974603 12.74070777 -9.35302734 10.49023438 C-9.35064056 9.20910767 -9.34825378 7.92798096 -9.34579468 6.60803223 C-8.96484375 3.49609375 -8.96484375 3.49609375 -7.68667603 1.58630371 C-5.24779741 0.0420826 -2.82883925 0.08175836 0 0 Z " fill="#0A0A0A" transform="translate(939.96484375,527.50390625)"/>
<path d="M0 0 C4.49341827 1.24817174 4.49341827 1.24817174 6.375 3.9375 C6.76268005 7.04943848 6.76268005 7.04943848 6.77905273 10.93164062 C6.78591599 11.63927048 6.79277924 12.34690033 6.79985046 13.07597351 C6.81815461 15.41543633 6.81427649 17.75423093 6.80859375 20.09375 C6.81315351 21.71895568 6.81845847 23.34415942 6.82447815 24.96936035 C6.83341607 28.37564935 6.83097811 31.78170397 6.82104492 35.18798828 C6.80954814 39.55645941 6.82977343 43.92412308 6.85896206 48.2924881 C6.87729327 51.64851024 6.87703792 55.00433771 6.87132454 58.36039734 C6.87117098 59.97117751 6.87724405 61.58197058 6.88961601 63.19270325 C6.90446884 65.44344004 6.89389373 67.69267026 6.87670898 69.94335938 C6.87654282 71.22448608 6.87637665 72.50561279 6.87620544 73.82556152 C6.375 76.9375 6.375 76.9375 4.56239319 78.84338379 C1.2832051 80.48360689 -1.01980458 80.45252792 -4.625 79.9375 C-7.44746921 77.23516354 -8.52826794 75.55206363 -9.1396637 71.66770935 C-9.14586227 70.42956985 -9.15206085 69.19143036 -9.15844727 67.91577148 C-9.16706284 67.22896301 -9.17567841 66.54215454 -9.18455505 65.83453369 C-9.20716733 63.57549837 -9.20048729 61.31770806 -9.19140625 59.05859375 C-9.19664308 57.48348117 -9.20291978 55.90837172 -9.21018982 54.33326721 C-9.22058447 51.03721321 -9.216045 47.74159122 -9.20141602 44.44555664 C-9.18420718 40.2227733 -9.2077525 36.00134797 -9.24290562 31.77871609 C-9.26486698 28.52813207 -9.26344174 25.27787386 -9.2551403 22.02723885 C-9.2543205 20.4703122 -9.26118961 18.9133617 -9.27591133 17.35650444 C-9.29334115 15.18009751 -9.27883471 13.00614235 -9.25610352 10.82983398 C-9.25514175 9.59249008 -9.25417999 8.35514618 -9.25318909 7.08030701 C-8.625 3.9375 -8.625 3.9375 -6.31211853 1.50282288 C-3.625 -0.0625 -3.625 -0.0625 0 0 Z " fill="#0D0D0D" transform="translate(1054.625,638.0625)"/>
<path d="M0 0 C2.61581421 1.59375 2.61581421 1.59375 5 4 C5.63491821 7.1875 5.63491821 7.1875 5.64697266 11 C5.65573425 11.69641602 5.66449585 12.39283203 5.67352295 13.11035156 C5.69549214 15.40753883 5.68097573 17.70279392 5.6640625 20 C5.66743142 21.59896209 5.67228467 23.19792167 5.67855835 24.796875 C5.68592622 28.14608164 5.67522783 31.494621 5.65185547 34.84375 C5.62336665 39.13498036 5.63977124 43.42464731 5.66971779 47.71582031 C5.68779373 51.01704673 5.68203162 54.317903 5.66907883 57.61914062 C5.66574558 59.20117376 5.66982913 60.7832406 5.68147659 62.36523438 C5.6941916 64.57772692 5.67480562 66.78769535 5.64697266 69 C5.64299469 70.258125 5.63901672 71.51625 5.63491821 72.8125 C5 76 5 76 2.65097046 78.41015625 C-0.57626223 80.3455968 -2.29524619 80.55177184 -6 80 C-8.1502533 78.90879822 -8.1502533 78.90879822 -10 77 C-10.5146637 73.89479065 -10.5146637 73.89479065 -10.53344727 70.02172852 C-10.54637062 68.96269318 -10.54637062 68.96269318 -10.55955505 67.88226318 C-10.58226554 65.54743834 -10.57546728 63.21380895 -10.56640625 60.87890625 C-10.57164001 59.25609479 -10.57791557 57.63328638 -10.58518982 56.01048279 C-10.59560362 52.60832411 -10.5910194 49.20658342 -10.57641602 45.80444336 C-10.55923467 41.44485468 -10.58270882 37.08658474 -10.61790562 32.72714329 C-10.63987022 29.37533334 -10.63844041 26.02383933 -10.6301403 22.6719799 C-10.62932009 21.06481417 -10.63619691 19.45762539 -10.65091133 17.85052681 C-10.66833973 15.60208347 -10.65383333 13.35601394 -10.63110352 11.10766602 C-10.63014175 9.82875992 -10.62917999 8.54985382 -10.62818909 7.23219299 C-10 4 -10 4 -7.61680603 1.58702087 C-4.63930701 -0.21875038 -3.40510547 -0.68102109 0 0 Z " fill="#0C0C0C" transform="translate(898,638)"/>
<path d="M0 0 C3.02911094 1.24271218 4.3994457 2.42533702 6.4375 5 C6.94543457 8.1875 6.94543457 8.1875 6.95507812 12 C6.96559204 13.04462402 6.96559204 13.04462402 6.97631836 14.11035156 C6.99389196 16.40730932 6.98227919 18.70303021 6.96875 21 C6.97144513 22.59896073 6.97532773 24.19791987 6.98034668 25.796875 C6.98624082 29.14599226 6.97768192 32.49468243 6.95898438 35.84375 C6.93619435 40.13478591 6.94931796 44.42482111 6.97327423 48.71582031 C6.9877348 52.01700366 6.98312515 55.31795011 6.97276306 58.61914062 C6.97009646 60.20117308 6.97336322 61.78322711 6.98268127 63.36523438 C6.99285179 65.57740163 6.9773419 67.787953 6.95507812 70 C6.95189575 71.258125 6.94871338 72.51625 6.94543457 73.8125 C6.34687577 77.56870461 5.46650984 78.76551548 2.4375 81 C-0.83674151 81.47749355 -2.75431107 81.40724021 -5.71665955 79.91453552 C-8.46799403 77.06080697 -8.07723869 74.84114804 -8.09594727 70.92993164 C-8.10456284 70.21415451 -8.11317841 69.49837738 -8.12205505 68.76091003 C-8.14476716 66.39362475 -8.13796693 64.02751836 -8.12890625 61.66015625 C-8.13413992 60.01492459 -8.14041546 58.36969595 -8.14768982 56.72447205 C-8.15810392 53.27523691 -8.15351893 49.82641404 -8.13891602 46.37719727 C-8.12173453 41.95708113 -8.14520898 37.53826565 -8.18040562 33.11829472 C-8.20236916 29.72016283 -8.20094066 26.3223426 -8.1926403 22.92416191 C-8.19182004 21.29466768 -8.19869788 19.66515074 -8.21341133 18.03572273 C-8.23083767 15.7561574 -8.21633472 13.47893404 -8.19360352 11.19946289 C-8.19264175 9.9027919 -8.19167999 8.60612091 -8.19068909 7.27015686 C-7.5625 4 -7.5625 4 -5.18321228 1.55003357 C-2.5625 0 -2.5625 0 0 0 Z " fill="#030303" transform="translate(836.5625,527)"/>
<path d="M0 0 C2.91587943 1.84672364 5.43125021 3.86250043 7 7 C7.12311126 9.56761586 7.18836415 12.10706019 7.203125 14.67578125 C7.20882507 15.43795456 7.21452515 16.20012787 7.22039795 16.98539734 C7.22985081 18.60019542 7.23638307 20.21501282 7.24023438 21.82983398 C7.24992133 24.29250092 7.28093303 26.75432656 7.3125 29.21679688 C7.3190321 30.78645338 7.32428176 32.35611586 7.328125 33.92578125 C7.3404718 34.65928299 7.3528186 35.39278473 7.36553955 36.14851379 C7.34617394 40.62609601 6.74045866 43.43319147 4 47 C1.08850547 49.3453706 -0.7797295 49.96853279 -4.5 50.5 C-8.92871571 49.86732633 -10.21937537 48.41619598 -13 45 C-15.43422842 41.34865738 -15.35685705 38.52816576 -15.40625 34.296875 C-15.41765015 33.54085999 -15.42905029 32.78484497 -15.4407959 32.00592041 C-15.45967879 30.40553365 -15.47275714 28.80506942 -15.48046875 27.20458984 C-15.49982729 24.77170528 -15.56184172 22.34224337 -15.625 19.91015625 C-15.80145941 6.86899788 -15.80145941 6.86899788 -12.09375 2.453125 C-7.47903356 -1.20601885 -5.78963752 -1.35091542 0 0 Z " fill="#F2F2F2" transform="translate(994,543)"/>
<path d="M0 0 C4.08208191 2.3960046 5.6090043 4.55248435 7 9 C7.21086445 11.61968072 7.32763634 14.13089147 7.3359375 16.75 C7.3425943 17.48573242 7.3492511 18.22146484 7.35610962 18.97949219 C7.36619847 20.52927157 7.37092781 22.07909406 7.37060547 23.62890625 C7.37498687 25.99291602 7.41136446 28.35506905 7.44921875 30.71875 C7.45508625 32.22916032 7.45905609 33.73957945 7.4609375 35.25 C7.47530853 35.9522168 7.48967957 36.65443359 7.50448608 37.37792969 C7.45972653 42.20932448 6.41642501 44.61216755 3 48 C-0.68814773 50.45876515 -3.716843 50.6943399 -8 50 C-11.27981751 47.93228896 -12.84746007 46.22880989 -15 43 C-15.23189765 40.31312851 -15.35194449 37.73233374 -15.37109375 35.04296875 C-15.38012222 34.26238602 -15.3891507 33.48180328 -15.39845276 32.67756653 C-15.41295501 31.02588738 -15.42184194 29.37415079 -15.42553711 27.72241211 C-15.43741023 25.20652222 -15.48657023 22.69310485 -15.53710938 20.17773438 C-15.54657693 18.57032443 -15.55381038 16.96289946 -15.55859375 15.35546875 C-15.57812607 14.60839157 -15.59765839 13.86131439 -15.61778259 13.09159851 C-15.58386913 9.12642034 -15.05408564 6.58463074 -12.59008789 3.5402832 C-8.67808579 -0.29649518 -5.36457649 -0.74136182 0 0 Z " fill="#F6F6F6" transform="translate(1011,653)"/>
<path d="M0 0 C3.0220794 1.74450506 5.41651082 3.83302164 7 7 C7.13536102 9.6401934 7.21265301 12.25276064 7.23828125 14.89453125 C7.246353 15.6789006 7.25442474 16.46326996 7.26274109 17.27140808 C7.27658062 18.93327627 7.28730337 20.59517287 7.29516602 22.25708008 C7.31236353 24.79238135 7.35624655 27.32637314 7.40039062 29.86132812 C7.41051915 31.47655292 7.41903476 33.09178879 7.42578125 34.70703125 C7.44328934 35.46240677 7.46079742 36.21778229 7.47883606 36.99604797 C7.46383427 40.65687303 7.14251781 42.77578939 5.16088867 45.89331055 C2.06497651 48.91157131 0.48909594 49.94477949 -3.875 50.4375 C-7.35364369 50.35437065 -7.95454794 50.03557118 -10.875 47.75 C-14.55737996 42.9845671 -15.31641055 39.58838258 -15.3359375 33.6015625 C-15.3459227 32.53269302 -15.3459227 32.53269302 -15.35610962 31.44223022 C-15.36621288 29.93774996 -15.37092736 28.43322509 -15.37060547 26.92871094 C-15.37497289 24.63921393 -15.41129599 22.35165548 -15.44921875 20.0625 C-15.45508884 18.59636071 -15.45905695 17.13021233 -15.4609375 15.6640625 C-15.47530853 14.98574371 -15.48967957 14.30742493 -15.50448608 13.60855103 C-15.45716315 8.63019393 -14.1212439 5.82583594 -11 2 C-7.3112362 -0.45917586 -4.2815571 -0.81591937 0 0 Z " fill="#F6F6F6" transform="translate(946,653)"/>
<path d="M0 0 C4.49047457 1.55125485 8.23019725 3.77289449 10.4375 8.1875 C10.56050902 10.67079109 10.62584888 13.12495557 10.640625 15.609375 C10.64632507 16.34698059 10.65202515 17.08458618 10.65789795 17.84454346 C10.66735133 19.40806646 10.67388327 20.97160941 10.67773438 22.53515625 C10.68740619 24.91442268 10.71841079 27.29281264 10.75 29.671875 C10.7565337 31.19270322 10.76178273 32.7135376 10.765625 34.234375 C10.7779718 34.94084167 10.7903186 35.64730835 10.80303955 36.37518311 C10.77841111 41.90468222 9.46525077 45.93444359 5.75 50.0625 C2.28667304 51.74736176 -0.85751131 52.05167189 -4.5625 51.1875 C-7.69429993 49.22915786 -10.1113123 46.78086786 -11.13076782 43.18066406 C-11.37138005 40.8610297 -11.42068231 38.61318156 -11.39453125 36.28125 C-11.40264328 35.43832397 -11.41075531 34.59539795 -11.41911316 33.72692871 C-11.42754537 31.95191248 -11.42077658 30.1767661 -11.3996582 28.40185547 C-11.37505675 25.6937475 -11.41979692 22.99277599 -11.47070312 20.28515625 C-11.47033265 18.55468154 -11.46591093 16.82420197 -11.45703125 15.09375 C-11.47433792 14.29046265 -11.49164459 13.48717529 -11.50947571 12.6595459 C-11.4247057 9.23502782 -11.24047329 7.04089412 -9.06942749 4.30810547 C-5.88731936 1.42801238 -4.40011689 0.2315851 0 0 Z " fill="#FAFAFA" transform="translate(887.5625,541.8125)"/>
<path d="M0 0 C1.47871399 1.06562805 1.47871399 1.06562805 3 3 C3.36076355 6.09416199 3.36076355 6.09416199 3.34057617 9.94995117 C3.34123329 11.00399391 3.34123329 11.00399391 3.34190369 12.07933044 C3.33981447 14.40082636 3.31647819 16.72159909 3.29296875 19.04296875 C3.28737324 20.65293483 3.28310293 22.26290602 3.28010559 23.87287903 C3.26865318 28.10954907 3.23918279 32.3459104 3.20599365 36.5824585 C3.17530119 40.9058413 3.16160203 45.22927401 3.14648438 49.55273438 C3.1143133 58.0352979 3.06311238 66.51761054 3 75 C2.67 75 2.34 75 2 75 C2 51.9 2 28.8 2 5 C1.34 5 0.68 5 0 5 C0 3.35 0 1.7 0 0 Z " fill="#272727" transform="translate(943,529)"/>
<path d="M0 0 C1.01015167 -0.00065712 1.01015167 -0.00065712 2.04071045 -0.00132751 C4.26482215 0.00076117 6.48817834 0.02409467 8.7121582 0.04760742 C10.25486336 0.05320313 11.79757386 0.05747335 13.34028625 0.06047058 C17.39941137 0.07192146 21.45821411 0.10139048 25.51721191 0.13458252 C29.65962361 0.16527831 33.80208742 0.17897485 37.94458008 0.1940918 C46.07168109 0.22626018 54.19852016 0.27745919 62.32543945 0.34057617 C62.32543945 0.67057617 62.32543945 1.00057617 62.32543945 1.34057617 C61.07302963 1.35270645 61.07302963 1.35270645 59.7953186 1.36508179 C51.93738616 1.44293338 44.07962727 1.5301951 36.22191811 1.62810326 C32.18191607 1.67810824 28.14194072 1.72443765 24.10180664 1.76245117 C20.20486408 1.79925126 16.30814254 1.8455963 12.4113884 1.89863968 C10.9226404 1.91721182 9.43384496 1.93230932 7.9450264 1.94392014 C5.86407959 1.96073486 3.78364212 1.98975675 1.70288086 2.02172852 C0.51707428 2.03505219 -0.6687323 2.04837585 -1.89047241 2.06210327 C-4.81387936 2.05774822 -4.81387936 2.05774822 -6.67456055 4.34057617 C-7.66456055 4.01057617 -8.65456055 3.68057617 -9.67456055 3.34057617 C-6.97863311 -0.34095179 -4.3593767 -0.02382173 0 0 Z " fill="#0E0E0E" transform="translate(977.674560546875,461.659423828125)"/>
<path d="M0 0 C1.40668945 0.01450195 1.40668945 0.01450195 2.84179688 0.02929688 C3.81826172 0.05443359 4.79472656 0.07957031 5.80078125 0.10546875 C6.78884766 0.11900391 7.77691406 0.13253906 8.79492188 0.14648438 C11.23492356 0.18184672 13.67382844 0.23119842 16.11328125 0.29296875 C16.11328125 0.62296875 16.11328125 0.95296875 16.11328125 1.29296875 C15.26564209 1.32269775 15.26564209 1.32269775 14.40087891 1.35302734 C11.84620128 1.44815111 9.29235584 1.55787933 6.73828125 1.66796875 C5.84882812 1.69890625 4.959375 1.72984375 4.04296875 1.76171875 C3.1921875 1.80039062 2.34140625 1.8390625 1.46484375 1.87890625 C0.28656006 1.9260376 0.28656006 1.9260376 -0.91552734 1.97412109 C-3.11674814 2.13291525 -3.11674814 2.13291525 -4.88671875 4.29296875 C-5.87671875 3.96296875 -6.86671875 3.63296875 -7.88671875 3.29296875 C-5.42854811 0.24399315 -3.85656876 -0.07011943 0 0 Z " fill="#202020" transform="translate(975.88671875,461.70703125)"/>
<path d="M0 0 C0.66 0.33 1.32 0.66 2 1 C1.24203125 1.81404297 1.24203125 1.81404297 0.46875 2.64453125 C-0.1809375 3.35996094 -0.830625 4.07539062 -1.5 4.8125 C-2.1496875 5.52019531 -2.799375 6.22789062 -3.46875 6.95703125 C-5.29987759 8.97457093 -5.29987759 8.97457093 -5 12 C-6.98 12.99 -6.98 12.99 -9 14 C-8.10870633 8.20659113 -4.16559102 3.8680488 0 0 Z " fill="#262626" transform="translate(992,642)"/>
<path d="M0 0 C2 2 2 2 2.22705078 3.97119141 C2.21657715 4.75671387 2.20610352 5.54223633 2.1953125 6.3515625 C2.18886719 7.20234375 2.18242188 8.053125 2.17578125 8.9296875 C2.15902344 9.81914063 2.14226563 10.70859375 2.125 11.625 C2.11597656 12.5221875 2.10695313 13.419375 2.09765625 14.34375 C2.0740497 16.56276586 2.0411231 18.78125077 2 21 C1.67 21 1.34 21 1 21 C0.93941406 19.79601562 0.87882813 18.59203125 0.81640625 17.3515625 C0.73200268 15.77602923 0.64735459 14.20050904 0.5625 12.625 C0.50352539 11.43390625 0.50352539 11.43390625 0.44335938 10.21875 C0.31106596 5.97398779 0.31106596 5.97398779 -1 2 C-0.67 1.34 -0.34 0.68 0 0 Z " fill="#151515" transform="translate(841,530)"/>
<path d="M0 0 C0.33 0.66 0.66 1.32 1 2 C-1.05233685 4.2477975 -2.00667261 5.0022242 -5 6 C-5.66 6.66 -6.32 7.32 -7 8 C-7.66 7.34 -8.32 6.68 -9 6 C-6.03 4.02 -3.06 2.04 0 0 Z " fill="#E0E0E0" transform="translate(400,708)"/>
<path d="M0 0 C0.66 0.66 1.32 1.32 2 2 C1.360625 2.268125 0.72125 2.53625 0.0625 2.8125 C-2.33131686 3.88667752 -2.33131686 3.88667752 -3 7 C-5.0625 7.6875 -5.0625 7.6875 -7 8 C-6.02133662 6.85373678 -5.04205413 5.70800212 -4.0625 4.5625 C-3.51722656 3.92441406 -2.97195313 3.28632813 -2.41015625 2.62890625 C-1.63204305 1.73008851 -0.84063472 0.84063472 0 0 Z " fill="#F4F4F4" transform="translate(924,454)"/>
<path d="M0 0 C3.375 0.6875 3.375 0.6875 7 2 C8.4375 4.625 8.4375 4.625 9 7 C2.25 3.375 2.25 3.375 0 0 Z " fill="#1C1C1C" transform="translate(536,669)"/>
<path d="M0 0 C0.66 0.66 1.32 1.32 2 2 C0.02 4.31 -1.96 6.62 -4 9 C-4 5.00095031 -2.27413033 3.19799578 0 0 Z " fill="#282828" transform="translate(359,726)"/>
</svg>
